<mxfile host="app.diagrams.net" modified="2022-11-24T13:05:57.741Z" agent="5.0 (Windows NT 10.0; Win64; x64) AppleWebKit/537.36 (KHTML, like Gecko) Chrome/107.0.0.0 Safari/537.36" etag="TqVWPjbrVemPH_jBa8M-" version="20.6.0" type="github">
  <diagram id="kgpKYQtTHZ0yAKxKKP6v" name="Page-1">
    <mxGraphModel dx="1038" dy="521" grid="1" gridSize="10" guides="1" tooltips="1" connect="1" arrows="1" fold="1" page="1" pageScale="1" pageWidth="850" pageHeight="1100" math="0" shadow="0">
      <root>
        <mxCell id="0" />
        <mxCell id="1" parent="0" />
        <mxCell id="3nuBFxr9cyL0pnOWT2aG-1" value=":User" style="shape=umlLifeline;perimeter=lifelinePerimeter;container=1;collapsible=0;recursiveResize=0;rounded=0;shadow=0;strokeWidth=1;" parent="1" vertex="1">
          <mxGeometry x="120" y="80" width="100" height="300" as="geometry" />
        </mxCell>
        <mxCell id="3nuBFxr9cyL0pnOWT2aG-5" value=":Switch" style="shape=umlLifeline;perimeter=lifelinePerimeter;container=1;collapsible=0;recursiveResize=0;rounded=0;shadow=0;strokeWidth=1;" parent="1" vertex="1">
          <mxGeometry x="300" y="80" width="100" height="300" as="geometry" />
        </mxCell>
        <mxCell id="3nuBFxr9cyL0pnOWT2aG-6" value="" style="points=[];perimeter=orthogonalPerimeter;rounded=0;shadow=0;strokeWidth=1;" parent="3nuBFxr9cyL0pnOWT2aG-5" vertex="1">
          <mxGeometry x="45" y="80" width="10" height="140" as="geometry" />
        </mxCell>
        <mxCell id="3nuBFxr9cyL0pnOWT2aG-8" value="switch on" style="verticalAlign=bottom;endArrow=block;entryX=0;entryY=0;shadow=0;strokeWidth=1;" parent="1" target="3nuBFxr9cyL0pnOWT2aG-6" edge="1">
          <mxGeometry relative="1" as="geometry">
            <mxPoint x="175" y="160.0000000000001" as="sourcePoint" />
          </mxGeometry>
        </mxCell>
        <mxCell id="3nuBFxr9cyL0pnOWT2aG-9" value="switch on" style="verticalAlign=bottom;endArrow=block;entryX=0;entryY=0.188;shadow=0;strokeWidth=1;entryDx=0;entryDy=0;entryPerimeter=0;" parent="1" source="3nuBFxr9cyL0pnOWT2aG-6" target="xN_I3Ma-3kkclcObPk1T-2" edge="1">
          <mxGeometry x="-0.0909" y="-10" relative="1" as="geometry">
            <mxPoint x="240" y="200" as="sourcePoint" />
            <mxPoint as="offset" />
          </mxGeometry>
        </mxCell>
        <mxCell id="3nuBFxr9cyL0pnOWT2aG-10" value="electricity send" style="verticalAlign=bottom;endArrow=block;exitX=0.56;exitY=0.382;shadow=0;strokeWidth=1;exitDx=0;exitDy=0;exitPerimeter=0;endFill=1;" parent="1" source="xN_I3Ma-3kkclcObPk1T-2" target="xN_I3Ma-3kkclcObPk1T-3" edge="1">
          <mxGeometry relative="1" as="geometry">
            <mxPoint x="240" y="257" as="targetPoint" />
          </mxGeometry>
        </mxCell>
        <mxCell id="xN_I3Ma-3kkclcObPk1T-5" value="" style="edgeStyle=orthogonalEdgeStyle;rounded=0;orthogonalLoop=1;jettySize=auto;html=1;endArrow=block;endFill=1;exitX=0.524;exitY=0.723;exitDx=0;exitDy=0;exitPerimeter=0;" edge="1" parent="1">
          <mxGeometry relative="1" as="geometry">
            <mxPoint x="172.4000000000001" y="297.9" as="sourcePoint" />
            <mxPoint x="350" y="299" as="targetPoint" />
            <Array as="points">
              <mxPoint x="172" y="299" />
            </Array>
          </mxGeometry>
        </mxCell>
        <mxCell id="xN_I3Ma-3kkclcObPk1T-6" value="Switch off" style="edgeLabel;html=1;align=center;verticalAlign=middle;resizable=0;points=[];" vertex="1" connectable="0" parent="xN_I3Ma-3kkclcObPk1T-5">
          <mxGeometry x="-0.6524" y="6" relative="1" as="geometry">
            <mxPoint x="58" y="-12" as="offset" />
          </mxGeometry>
        </mxCell>
        <mxCell id="xN_I3Ma-3kkclcObPk1T-1" value=":Electrical Network" style="shape=umlLifeline;perimeter=lifelinePerimeter;container=1;collapsible=0;recursiveResize=0;rounded=0;shadow=0;strokeWidth=1;" vertex="1" parent="1">
          <mxGeometry x="460" y="80" width="130" height="300" as="geometry" />
        </mxCell>
        <mxCell id="xN_I3Ma-3kkclcObPk1T-2" value="" style="points=[];perimeter=orthogonalPerimeter;rounded=0;shadow=0;strokeWidth=1;" vertex="1" parent="xN_I3Ma-3kkclcObPk1T-1">
          <mxGeometry x="60" y="100" width="10" height="140" as="geometry" />
        </mxCell>
        <mxCell id="xN_I3Ma-3kkclcObPk1T-7" value="" style="edgeStyle=orthogonalEdgeStyle;rounded=0;orthogonalLoop=1;jettySize=auto;html=1;endArrow=block;endFill=1;exitX=0.524;exitY=0.723;exitDx=0;exitDy=0;exitPerimeter=0;" edge="1" parent="xN_I3Ma-3kkclcObPk1T-1">
          <mxGeometry relative="1" as="geometry">
            <mxPoint x="-104.99999999999989" y="240" as="sourcePoint" />
            <mxPoint x="72.60000000000002" y="241.10000000000002" as="targetPoint" />
            <Array as="points">
              <mxPoint x="-105.39999999999998" y="241.10000000000002" />
            </Array>
          </mxGeometry>
        </mxCell>
        <mxCell id="xN_I3Ma-3kkclcObPk1T-8" value="Switch off" style="edgeLabel;html=1;align=center;verticalAlign=middle;resizable=0;points=[];" vertex="1" connectable="0" parent="xN_I3Ma-3kkclcObPk1T-7">
          <mxGeometry x="-0.6524" y="6" relative="1" as="geometry">
            <mxPoint x="58" y="-12" as="offset" />
          </mxGeometry>
        </mxCell>
        <mxCell id="xN_I3Ma-3kkclcObPk1T-3" value=":Lamp" style="shape=umlLifeline;perimeter=lifelinePerimeter;container=1;collapsible=0;recursiveResize=0;rounded=0;shadow=0;strokeWidth=1;" vertex="1" parent="1">
          <mxGeometry x="620" y="80" width="110" height="300" as="geometry" />
        </mxCell>
        <mxCell id="xN_I3Ma-3kkclcObPk1T-4" value="" style="points=[];perimeter=orthogonalPerimeter;rounded=0;shadow=0;strokeWidth=1;" vertex="1" parent="xN_I3Ma-3kkclcObPk1T-3">
          <mxGeometry x="50" y="145" width="10" height="115" as="geometry" />
        </mxCell>
        <mxCell id="xN_I3Ma-3kkclcObPk1T-9" value="" style="edgeStyle=orthogonalEdgeStyle;rounded=0;orthogonalLoop=1;jettySize=auto;html=1;endArrow=block;endFill=1;exitX=0.524;exitY=0.723;exitDx=0;exitDy=0;exitPerimeter=0;" edge="1" parent="xN_I3Ma-3kkclcObPk1T-3">
          <mxGeometry relative="1" as="geometry">
            <mxPoint x="-90" y="260" as="sourcePoint" />
            <mxPoint x="50" y="261" as="targetPoint" />
            <Array as="points">
              <mxPoint x="-90.39999999999998" y="261.1" />
            </Array>
          </mxGeometry>
        </mxCell>
        <mxCell id="xN_I3Ma-3kkclcObPk1T-10" value="Cut off the electricity" style="edgeLabel;html=1;align=center;verticalAlign=middle;resizable=0;points=[];" vertex="1" connectable="0" parent="xN_I3Ma-3kkclcObPk1T-9">
          <mxGeometry x="-0.6524" y="6" relative="1" as="geometry">
            <mxPoint x="58" y="-12" as="offset" />
          </mxGeometry>
        </mxCell>
      </root>
    </mxGraphModel>
  </diagram>
</mxfile>
